<?xml version="1.0" encoding="utf-8"?>
<!-- Generator: Adobe Illustrator 28.0.0, SVG Export Plug-In . SVG Version: 6.00 Build 0)  -->
<svg version="1.1" id="Calque_1" xmlns="http://www.w3.org/2000/svg" xmlns:xlink="http://www.w3.org/1999/xlink" x="0px" y="0px"
	 viewBox="0 0 780 376.7" style="enable-background:new 0 0 780 376.7;" xml:space="preserve">
<style type="text/css">
	.st0{fill:#40F2DC;}
</style>
<path class="st0" d="M1064,937.4"/>
<g>
	<path d="M1.2,2.9h35.4c0,3.9,0,6.7,0,8.6c0,1.9,0,4.6,0,8.4c0,3.2,0,5.6,0,7.1c0,1.5,0,3.8,0,6.9c0.5,0,0.9,0,1.2,0
		c0.3,0,0.7,0,1.2,0c1.3-4,2.9-7.7,4.8-10.9s4.1-6.1,6.5-8.7C54.8,9.5,60,5.9,66,3.5C72.1,1.2,78.3,0,84.8,0c15,0,27,4.6,36,13.8
		c9,9.2,13.4,22,13.4,38.5v94.7H98.1c0-7.9,0-15.7,0-23.5c0-7.9,0-13.8,0-17.6c0-3.8,0-9.6,0-17.3c0-5.7,0-9.9,0-12.7
		c0-2.8,0-7,0-12.5c0-9.5-2-16.8-6.1-21.9C88,36.5,81,33.9,71,33.9c-5.5,0-10.7,1-15.7,3c-5,2-9.2,5.8-12.7,11.3
		c-3.5,5.5-5.2,13.1-5.2,22.8c0,7.1,0,12.4,0,15.7c0,3.4,0,8.5,0,15.3c0,10.2,0,17.8,0,22.8c0,5,0,12.4,0,22.3H1.2V2.9z"/>
	<path d="M190.5,140.9c-11.3-6.1-20.2-14.8-26.5-26.2c-6.4-11.4-9.6-24.8-9.6-40.1c0-14.5,3-27.5,9-38.8c6-11.3,14.2-20.1,24.7-26.4
		C198.5,3.1,210.3,0,223.4,0c13.4,0,24.8,2.9,34.2,8.8c9.4,5.9,16.5,13.9,21.3,24.1c4.8,10.2,7.3,21.6,7.3,34.4c0,7.3,0,14.6,0,22
		h-93.8c1.6,6,4.3,10.9,8.1,14.9c3.8,4,8.4,6.9,13.7,8.8c5.3,1.9,11.3,2.9,17.9,2.9c6.6,0,13.4-0.8,20.4-2.4
		c6.9-1.6,13.9-4,20.8-7.3v37.6c-14.5,4-29.2,6.1-44.1,6.1C214.7,150,201.8,147,190.5,140.9z M220.7,64.7c6.5,0,16.2,0,29.1,0
		c-0.5-10.3-2.7-18.5-6.8-24.5c-4-6-11.4-9-22-9c-6.6,0-12.1,1.5-16.4,4.4c-4.3,2.9-7.5,6.8-9.6,11.8c-2.1,4.9-3.5,10.7-4.1,17.3
		C204.4,64.7,214.3,64.7,220.7,64.7z"/>
	<path d="M0,180h36.1c0,9.5,0,16.6,0,21.3s0,11.7,0,21.1c0,12.3,0,24.6,0,37.1c0.6,0,1.2,0,1.7,0c2.4-6.1,5.9-11.7,10.4-16.6
		c4.5-4.9,9.9-8.8,16.1-11.8c6.2-2.9,13-4.4,20.2-4.4c17.9,0,31.6,6.5,41.1,19.4c9.4,12.9,14.2,29.6,14.2,49.9
		c0,14.4-2.7,27.4-8,39.1c-5.3,11.7-13.5,21.1-24.5,28.1c-11,7-24.7,10.5-41.2,10.5H0V180z M69.8,342.8c7.1,0,13.2-1.9,18.3-5.7
		c5.1-3.8,9-9.1,11.6-16c2.7-6.9,4-14.7,4-23.6c0-12.3-2.8-21.5-8.4-27.6c-5.6-6.1-13.1-9.2-22.7-9.2c-11.1,0-20,3.9-26.7,11.8
		c-6.6,7.8-9.9,18-9.9,30.4c0,13.2,0,26.6,0,40C47.4,342.8,58.6,342.8,69.8,342.8z"/>
	<path d="M161.6,347.6c0-5.7,0-14.2,0-25.7c0-9,0-15.8,0-20.2c0-4.4,0-11.1,0-20c0-10,0-17.4,0-22.3c0-4.8,0-12.1,0-21.8
		c0-13.1,0-22.8,0-29.1c0-6.3,0-15.8,0-28.6h36.1c0,12.3,0,21.4,0,27.4c0,6,0,14.9,0,26.9c0,11.1,0,19.4,0,24.8c0,5.4,0,13.5,0,24.4
		c0,8.9,0,15.5,0,19.8c0,4.3,0,10.7,0,19.3c0,11.6,0,20.3,0,25.9c0,5.7,0,14.1,0,25.4h-36.1C161.6,362,161.6,353.3,161.6,347.6z"/>
	<path d="M255.8,367c-11.4-6.5-20.3-15.4-26.7-26.8c-6.4-11.4-9.6-24.3-9.6-38.6c0-14.4,3.3-27.3,9.8-38.6
		c6.5-11.4,15.6-20.3,27.1-26.7c11.5-6.4,24.5-9.6,38.9-9.6c14.2,0,27,3.2,38.4,9.7c11.4,6.5,20.3,15.4,26.7,26.8
		c6.4,11.4,9.6,24.3,9.6,38.6c0,14.4-3.3,27.3-9.8,38.6c-6.5,11.4-15.6,20.3-27.1,26.7c-11.6,6.4-24.5,9.6-38.9,9.6
		C279.9,376.7,267.1,373.5,255.8,367z M315.6,337.7c5.9-3.4,10.4-8.2,13.6-14.4c3.1-6.2,4.7-13.4,4.7-21.4
		c0-12.3-3.6-22.2-10.7-29.8c-7.1-7.6-16.6-11.4-28.6-11.4c-7.9,0-14.8,1.7-20.7,5.1c-5.9,3.4-10.4,8.2-13.6,14.4
		s-4.7,13.4-4.7,21.4c0,8.1,1.6,15.2,4.7,21.4c3.1,6.2,7.7,11.1,13.7,14.5c6,3.5,12.9,5.2,20.8,5.2
		C302.8,342.8,309.7,341.1,315.6,337.7z"/>
	<path d="M556.8,229.6h35.4c0,3.9,0,6.8,0,8.7c0,1.9,0,4.8,0,8.5c0,3.1,0,5.4,0,6.9c0,1.5,0,3.8,0,6.9c0.5,0,0.9,0,1.2,0
		c0.3,0,0.7,0,1.2,0c1.1-3.9,2.6-7.4,4.4-10.7c1.8-3.2,3.8-6.1,6.1-8.7c2.9-3.4,6.2-6.1,9.8-8.2c3.6-2.1,7.4-3.7,11.4-4.7
		c4-1,8.1-1.6,12.5-1.6c13.6,0,24.5,3.9,33,11.6c1.9,1.6,3.8,3.5,5.5,5.7c1.7,2.2,3.2,4.5,4.5,6.9c1.3,2.7,2.5,6,3.6,9.7
		c0.6,0,1.1,0,1.5,0c0.3,0,0.8,0,1.5,0c1.1-3.7,2.6-7.2,4.4-10.3c1.8-3.1,3.7-6,5.8-8.6c4.4-5,9.4-8.8,15.3-11.3
		c5.8-2.5,12-3.8,18.7-3.8c14.2,0,25.7,4.6,34.5,13.8c8.8,9.2,13.2,22,13.2,38.5v94.7h-36.1c0-8.4,0-16.7,0-25c0-5.8,0-10.2,0-13.1
		c0-2.9,0-5.8,0-8.7c0-2.9,0-7.3,0-13.1c0-5.3,0-9.3,0-12c0-2.7,0-6.6,0-11.8c0-9.5-1.9-16.8-5.8-21.9c-3.9-5.1-10.4-7.6-19.6-7.6
		c-8.7,0-16.2,2.7-22.5,8c-6.3,5.3-9.4,15-9.4,29.1c0,5.3,0,9.3,0,11.9c0,2.6,0,6.5,0,11.6c0,6.3,0,10.9,0,13.9c0,3,0,7.6,0,13.7
		c0,8.2,0,16.6,0,25h-36.1c0-8.2,0-16.4,0-24.5c0-7.9,0-13.8,0-17.6c0-3.8,0-9.5,0-17.1c0-5.5,0-9.6,0-12.4c0-2.7,0-6.8,0-12.1
		c0-9.5-1.9-16.8-5.8-21.9c-3.9-5.1-10.4-7.6-19.6-7.6c-5.3,0-10.4,1-15.1,3c-4.8,2-8.8,5.8-12,11.3c-3.2,5.5-4.8,13.1-4.8,22.8
		c0,5,0,8.7,0,11s0,5.9,0,10.8c0,4.8,0,8.5,0,10.9c0,2.4,0,4.8,0,7.3c0,2.4,0,6.1,0,10.9c0,8.4,0,16.8,0,25.2h-36.1V229.6z"/>
	<path d="M525.8,256.1c-3.6-6.5-8.1-12.2-13.4-17.1c-10.5-9.7-20.5-20-28.6-31.8c-9-13.2-18.6-28.5-24.8-46.1
		c-11.9-33.7-9.7-63.9-11-86.2h0c0-14.3-3.2-27.2-9.6-38.5c-6.4-11.4-15.3-20.3-26.7-26.8C400.4,3.2,387.6,0,373.4,0
		c-14.4,0-27.3,3.2-38.9,9.6C323,16,313.9,24.8,307.4,36.2c-6.5,11.4-9.8,24.3-9.8,38.6c0,14.4,3.2,27.3,9.6,38.6
		c3.6,6.5,8.1,12.2,13.4,17.1c10.5,9.7,20.5,20,28.6,31.8c9,13.2,18.6,28.5,24.8,46.1c11.9,33.7,9.7,63.9,11,86.2h0
		c0,14.3,3.2,27.2,9.6,38.5c6.4,11.4,15.3,20.3,26.7,26.8c11.4,6.5,24.2,9.7,38.4,9.7c14.4,0,27.3-3.2,38.9-9.6
		c11.6-6.4,20.6-15.3,27.1-26.7c6.5-11.4,9.8-24.3,9.8-38.6C535.4,280.4,532.2,267.5,525.8,256.1z M494.6,316.2
		c-3.1,6.2-7.7,11-13.6,14.4c-5.9,3.4-12.8,5.1-20.7,5.1c-12,0-21.5-3.8-28.6-11.4c-7.1-7.6-10.7-17.5-10.7-29.8h0
		c-1.6-24.6-0.1-59.6-15.1-98.8c-12.1-31.5-31.6-56.6-46.3-75.1c-4.2-5.3-9.1-9.8-14-14.5c-2.9-2.7-5.3-6-7.2-9.7
		c-3.1-6.2-4.7-13.4-4.7-21.4c0-8.1,1.6-15.2,4.7-21.4c3.1-6.2,7.7-11,13.6-14.4c5.9-3.4,12.8-5.1,20.7-5.1c12,0,21.5,3.8,28.6,11.4
		c7.1,7.6,10.7,17.5,10.7,29.8h0c1.6,24.6,0.1,59.6,15.1,98.8c12.1,31.5,31.6,56.6,46.3,75.1c4.2,5.3,9.1,9.8,14,14.5
		c2.9,2.7,5.3,6,7.2,9.7c3.1,6.2,4.7,13.4,4.7,21.4C499.3,302.8,497.7,310,494.6,316.2z"/>
</g>
</svg>
